<svg width="456" height="456" viewBox="0 0 456 456" fill="none" xmlns="http://www.w3.org/2000/svg">
<path fill-rule="evenodd" clip-rule="evenodd" d="M400 20C400 8.95431 391.046 0 380 0H20C8.95431 0 0 8.95431 0 20V380C0 391.046 8.95431 400 20 400H242.268C262.357 433.545 299.056 456 341 456C404.513 456 456 404.513 456 341C456 299.056 433.545 262.357 400 242.268V20ZM226 341C226 344.029 226.117 347.03 226.347 350H70C58.9543 350 50 341.046 50 330V70C50 58.9543 58.9543 50 70 50H330C341.046 50 350 58.9543 350 70V226.347C347.03 226.117 344.029 226 341 226C332.058 226 323.355 227.021 315 228.951V105C315 93.9543 306.046 85 295 85H105C93.9543 85 85 93.9543 85 105V295C85 306.046 93.9543 315 105 315H228.951C227.021 323.355 226 332.058 226 341ZM237.697 180.602L284.217 240.973C264.306 252.301 248.107 269.403 237.899 290H130C125.784 290 121.872 288.695 118.647 286.468L237.697 180.602ZM290 130V215.711L246.99 159.896L240.441 151.398L232.424 158.527L207.679 180.532L181.347 144.138L174.657 134.891L166.369 142.739L110 196.126V130C110 118.954 118.954 110 130 110H270C281.046 110 290 118.954 290 130ZM110 267.393V223.673L171.835 165.109L192.658 193.889L110 267.393ZM341 431C390.706 431 431 390.706 431 341C431 291.294 390.706 251 341 251C291.294 251 251 291.294 251 341C251 390.706 291.294 431 341 431ZM333.241 282V331H282V351H333.241V400H353.241V351H400V331H353.241V282H333.241Z" fill="black"/>
</svg>
